<svg width="17" height="18" viewBox="0 0 17 18" fill="none" xmlns="http://www.w3.org/2000/svg">
<path d="M9.92857 18C9.76329 18 9.60246 17.9474 9.47024 17.85L6.41472 15.6C6.31985 15.5301 6.24284 15.4396 6.18981 15.3354C6.13678 15.2313 6.10916 15.1164 6.10916 15V10.785L0.749779 4.86525C0.369152 4.44366 0.120631 3.92311 0.0340837 3.36618C-0.0524635 2.80924 0.0266467 2.23961 0.261906 1.72576C0.497165 1.21191 0.878562 0.775694 1.36026 0.469549C1.84195 0.163405 2.40345 0.000355814 2.97725 0L13.8244 0C14.3981 0.000660788 14.9595 0.163979 15.441 0.47033C15.9225 0.776681 16.3036 1.21303 16.5386 1.72694C16.7736 2.24085 16.8525 2.81046 16.7657 3.36731C16.679 3.92416 16.4303 4.44457 16.0495 4.866L10.6924 10.785V17.25C10.6924 17.4489 10.612 17.6397 10.4687 17.7803C10.3255 17.921 10.1312 18 9.92857 18ZM7.63693 14.625L9.16469 15.75V10.5C9.16484 10.3164 9.23361 10.1392 9.35795 10.002L14.9098 3.86925C15.095 3.66381 15.2158 3.41028 15.2577 3.13909C15.2997 2.8679 15.2611 2.59058 15.1465 2.34042C15.0318 2.09026 14.8461 1.87789 14.6116 1.72882C14.3771 1.57974 14.1037 1.50029 13.8244 1.5H2.97725C2.69802 1.50042 2.42483 1.57991 2.19046 1.72895C1.95609 1.87799 1.77048 2.09025 1.6559 2.34026C1.54132 2.59028 1.50263 2.86744 1.54446 3.13851C1.5863 3.40958 1.7069 3.66304 1.89178 3.8685L7.44443 10.002C7.56849 10.1393 7.63698 10.3165 7.63693 10.5V14.625Z" fill="#7B7B94"/>
</svg>
