<svg width="126" height="126" viewBox="0 0 126 126" fill="none" xmlns="http://www.w3.org/2000/svg">
<circle cx="63" cy="63" r="63" fill="#F0BEF0"/>
<path d="M126 63C126 73.9364 123.153 84.6844 117.739 94.1868C112.325 103.689 104.531 111.619 95.1234 117.195C85.7155 122.771 75.018 125.803 64.0833 125.991C53.1485 126.179 42.3531 123.517 32.7591 118.267C23.165 113.018 15.1028 105.361 9.36544 96.0505C3.6281 86.7399 0.413289 76.0961 0.0372523 65.1662C-0.338785 54.2363 2.1369 43.3967 7.22079 33.7138C12.3047 24.0309 19.8216 15.8382 29.0322 9.94166L63 63H126Z" fill="#F6E6C7"/>
<path d="M103.734 111.06C97.1621 116.63 89.5178 120.793 81.2734 123.292C73.0291 125.79 64.3598 126.572 55.8015 125.587C47.2432 124.603 38.9777 121.874 31.5159 117.569C24.0541 113.264 17.5545 107.474 12.4188 100.557C7.28319 93.6407 3.62064 85.7443 1.65754 77.3563C-0.305561 68.9682 -0.527492 60.2666 1.00546 51.7894C2.53842 43.3122 5.79369 35.2394 10.5701 28.07C15.3464 20.9007 21.5424 14.7871 28.7751 10.1071L63 63L103.734 111.06Z" fill="#C6EEE3"/>
<circle cx="63" cy="63" r="25.4681" fill="#FEFEFF"/>
</svg>
