<svg width="18" height="20" viewBox="0 0 18 20" fill="none" xmlns="http://www.w3.org/2000/svg">
<path d="M9 6.66872C8.34052 6.66872 7.69586 6.86428 7.14753 7.23066C6.59919 7.59705 6.17182 8.1178 5.91945 8.72708C5.66708 9.33635 5.60105 10.0068 5.7297 10.6536C5.85836 11.3004 6.17593 11.8945 6.64225 12.3608C7.10857 12.8271 7.70269 13.1447 8.3495 13.2734C8.9963 13.402 9.66673 13.336 10.276 13.0836C10.8853 12.8313 11.406 12.4039 11.7724 11.8556C12.1388 11.3072 12.3344 10.6626 12.3344 10.0031C12.3344 9.11875 11.9831 8.27065 11.3577 7.64533C10.7324 7.02002 9.88432 6.66872 9 6.66872ZM9 11.6703C8.67026 11.6703 8.34793 11.5725 8.07376 11.3893C7.79959 11.2061 7.58591 10.9457 7.45972 10.6411C7.33354 10.3364 7.30052 10.0012 7.36485 9.67783C7.42918 9.35443 7.58796 9.05737 7.82112 8.82421C8.05428 8.59105 8.35134 8.43226 8.67475 8.36793C8.99815 8.30361 9.33336 8.33662 9.638 8.46281C9.94264 8.58899 10.203 8.80268 10.3862 9.07685C10.5694 9.35101 10.6672 9.67334 10.6672 10.0031C10.6672 10.4452 10.4915 10.8693 10.1789 11.182C9.86621 11.4946 9.44216 11.6703 9 11.6703Z" fill="#7B7B94"/>
<path d="M16.7474 11.5869L16.3773 11.3735C16.5439 10.4669 16.5439 9.53757 16.3773 8.63099L16.7474 8.41759C17.032 8.25339 17.2815 8.03473 17.4816 7.77411C17.6817 7.51349 17.8285 7.216 17.9137 6.89864C17.9988 6.58127 18.0206 6.25025 17.9779 5.92446C17.9351 5.59867 17.8285 5.28449 17.6643 4.99987C17.5001 4.71525 17.2815 4.46577 17.0209 4.26565C16.7602 4.06553 16.4627 3.91871 16.1454 3.83357C15.828 3.74842 15.497 3.72662 15.1712 3.7694C14.8454 3.81219 14.5312 3.91872 14.2466 4.08292L13.8757 4.29716C13.1751 3.69857 12.3699 3.23454 11.5008 2.9284V2.50077C11.5008 1.83752 11.2373 1.20144 10.7683 0.732459C10.2993 0.263473 9.66325 0 9 0C8.33675 0 7.70067 0.263473 7.23169 0.732459C6.7627 1.20144 6.49923 1.83752 6.49923 2.50077V2.9284C5.63012 3.23564 4.82525 3.70081 4.12517 4.30049L3.75255 4.08459C3.17774 3.75297 2.49473 3.66327 1.85378 3.83523C1.21284 4.00719 0.666454 4.42673 0.334831 5.00154C0.00320856 5.57635 -0.0864883 6.25936 0.085473 6.90031C0.257434 7.54125 0.676968 8.08764 1.25178 8.41926L1.62189 8.63266C1.45527 9.53924 1.45527 10.4686 1.62189 11.3752L1.25178 11.5886C0.676968 11.9202 0.257434 12.4666 0.085473 13.1075C-0.0864883 13.7485 0.00320856 14.4315 0.334831 15.0063C0.666454 15.5811 1.21284 16.0006 1.85378 16.1726C2.49473 16.3446 3.17774 16.2549 3.75255 15.9232L4.1235 15.709C4.82435 16.3077 5.62978 16.7717 6.49923 17.0778V17.5054C6.49923 18.1686 6.7627 18.8047 7.23169 19.2737C7.70067 19.7427 8.33675 20.0062 9 20.0062C9.66325 20.0062 10.2993 19.7427 10.7683 19.2737C11.2373 18.8047 11.5008 18.1686 11.5008 17.5054V17.0778C12.3699 16.7705 13.1747 16.3054 13.8748 15.7057L14.2475 15.9207C14.8223 16.2524 15.5053 16.3421 16.1462 16.1701C16.7872 15.9981 17.3335 15.5786 17.6652 15.0038C17.9968 14.429 18.0865 13.746 17.9145 13.105C17.7426 12.4641 17.323 11.9177 16.7482 11.5861L16.7474 11.5869ZM14.6234 8.43927C14.9057 9.46213 14.9057 10.5424 14.6234 11.5652C14.5741 11.7433 14.5854 11.9326 14.6554 12.1036C14.7254 12.2745 14.8502 12.4174 15.0102 12.5097L15.9138 13.0315C16.1054 13.1421 16.2452 13.3242 16.3025 13.5378C16.3598 13.7514 16.3298 13.979 16.2193 14.1706C16.1088 14.3622 15.9267 14.502 15.713 14.5593C15.4994 14.6166 15.2718 14.5867 15.0802 14.4761L14.1749 13.9526C14.0148 13.8599 13.8283 13.8231 13.645 13.848C13.4616 13.8729 13.2917 13.9581 13.1621 14.0902C12.4201 14.8476 11.4854 15.3881 10.4588 15.6532C10.2796 15.6992 10.1208 15.8036 10.0075 15.9498C9.89413 16.0961 9.83266 16.2759 9.83276 16.4609V17.5054C9.83276 17.7265 9.74493 17.9385 9.5886 18.0948C9.43228 18.2512 9.22025 18.339 8.99917 18.339C8.77808 18.339 8.56606 18.2512 8.40973 18.0948C8.2534 17.9385 8.16558 17.7265 8.16558 17.5054V16.4617C8.16567 16.2767 8.1042 16.0969 7.99086 15.9507C7.87752 15.8044 7.71874 15.7001 7.53955 15.654C6.51286 15.3878 5.57839 14.8462 4.83705 14.0877C4.70745 13.9556 4.53757 13.8704 4.3542 13.8455C4.17082 13.8206 3.98438 13.8574 3.82424 13.9501L2.92063 14.4728C2.82579 14.5284 2.72089 14.5647 2.61197 14.5796C2.50305 14.5945 2.39226 14.5877 2.28598 14.5596C2.17969 14.5315 2.08002 14.4826 1.99269 14.4158C1.90536 14.3491 1.83211 14.2657 1.77714 14.1705C1.72217 14.0753 1.68658 13.9701 1.67241 13.8611C1.65824 13.7521 1.66577 13.6414 1.69458 13.5353C1.72338 13.4292 1.77288 13.3298 1.84024 13.2429C1.90759 13.1561 1.99147 13.0833 2.08704 13.029L2.99065 12.5072C3.15066 12.4149 3.27547 12.272 3.34547 12.1011C3.41548 11.9301 3.42673 11.7408 3.37744 11.5627C3.09515 10.5399 3.09515 9.45963 3.37744 8.43676C3.42584 8.25911 3.41406 8.07043 3.34394 7.90018C3.27381 7.72992 3.14929 7.58767 2.98982 7.49564L2.0862 6.97381C1.89464 6.86327 1.75483 6.68116 1.69753 6.46754C1.64024 6.25391 1.67015 6.02628 1.78069 5.83471C1.89123 5.64315 2.07335 5.50334 2.28697 5.44604C2.50059 5.38875 2.72823 5.41866 2.91979 5.5292L3.82507 6.0527C3.98477 6.14565 4.17083 6.18291 4.35401 6.15862C4.53719 6.13433 4.7071 6.04986 4.83705 5.91849C5.57902 5.16104 6.51376 4.62061 7.54038 4.35551C7.72013 4.3093 7.87932 4.20442 7.99272 4.0575C8.10612 3.91058 8.16724 3.73002 8.16641 3.54442V2.50077C8.16641 2.27969 8.25423 2.06766 8.41056 1.91133C8.56689 1.755 8.77892 1.66718 9 1.66718C9.22108 1.66718 9.43311 1.755 9.58944 1.91133C9.74577 2.06766 9.83359 2.27969 9.83359 2.50077V3.54442C9.8335 3.72945 9.89496 3.90924 10.0083 4.05548C10.1216 4.20173 10.2804 4.3061 10.4596 4.35217C11.4866 4.61822 12.4214 5.15983 13.1629 5.91849C13.2926 6.05059 13.4624 6.1358 13.6458 6.1607C13.8292 6.18561 14.0156 6.14878 14.1758 6.05603L15.0794 5.53337C15.1742 5.47777 15.2791 5.44148 15.388 5.42659C15.497 5.4117 15.6077 5.4185 15.714 5.44659C15.8203 5.47469 15.92 5.52354 16.0073 5.59032C16.0946 5.65709 16.1679 5.74049 16.2229 5.83569C16.2778 5.9309 16.3134 6.03603 16.3276 6.14505C16.3418 6.25407 16.3342 6.36481 16.3054 6.4709C16.2766 6.577 16.2271 6.67634 16.1598 6.76323C16.0924 6.85011 16.0085 6.92281 15.913 6.97715L15.0094 7.49898C14.8502 7.59126 14.726 7.73361 14.6562 7.90385C14.5864 8.07408 14.5748 8.26263 14.6234 8.4401V8.43927Z" fill="#7B7B94"/>
</svg>
